<?xml version="1.0" encoding="utf-8"?>
<!-- Generator: Adobe Illustrator 16.0.0, SVG Export Plug-In . SVG Version: 6.00 Build 0)  -->
<!DOCTYPE svg PUBLIC "-//W3C//DTD SVG 1.1//EN" "http://www.w3.org/Graphics/SVG/1.1/DTD/svg11.dtd">
<svg version="1.1" id="Layer_1" xmlns="http://www.w3.org/2000/svg" xmlns:xlink="http://www.w3.org/1999/xlink" x="0px" y="0px"
	 width="261.602px" height="108.215px" viewBox="0 0 261.602 108.215" enable-background="new 0 0 261.602 108.215"
	 xml:space="preserve">
<g>
	<path fill-rule="evenodd" clip-rule="evenodd" fill="#1F4972" d="M129.011,31.386c-4.133-7.818-8.26-7.335-19.599-7.335
		l-1.875,7.335H129.011L129.011,31.386z"/>
	<polygon fill-rule="evenodd" clip-rule="evenodd" fill="#1F4973" points="176.049,42.302 181.331,42.302 181.331,37.355 
		176.049,37.355 176.049,42.302 	"/>
	<polygon fill-rule="evenodd" clip-rule="evenodd" fill="#1D4B73" points="211.837,65.5 217.292,65.5 217.33,55.411 224.278,65.5 
		231.138,65.469 222.44,53.932 230.073,44.69 223.691,44.764 217.292,52.878 217.292,37.186 211.837,37.186 211.837,65.5 	"/>
	<path fill-rule="evenodd" clip-rule="evenodd" fill="#EF7A2A" d="M116.4,61.066h-3.579v-8.188h2.897
		c2.892,0,5.964,1.059,5.964,3.923v0.511C121.683,59.812,118.891,61.066,116.4,61.066L116.4,61.066z M112.821,41.791h2.897
		c2.457,0,4.771,0.839,4.771,3.241v0.682c0,2.426-3.209,3.07-5.794,3.07h-1.875V41.791L112.821,41.791z M120.661,51.002
		c1.643-1.043,2.001-0.402,3.792-2.174c1.04-1.029,1.662-2.307,1.662-4.308v-0.682c0-4.342-4.353-6.482-8.862-6.482h-10.055V65.5
		h10.396c5.402,0,9.374-2.723,9.374-8.188C126.966,53.899,123.914,51.002,120.661,51.002L120.661,51.002z"/>
	<path fill-rule="evenodd" clip-rule="evenodd" fill="#1F4973" d="M44.821,41.791h2.557c2.365,0,3.632,1.28,4.602,2.729l0.214,2.042
		l-0.043,0.175c0,2.361-2.57,3.753-4.942,3.753h-2.386V41.791L44.821,41.791z M47.889,54.925c6.055,0,10.225-3.199,10.225-9.381
		c0-6.647-6.18-8.188-12.952-8.188h-5.964V65.5h5.624V54.925H47.889L47.889,54.925z"/>
	<polygon fill-rule="evenodd" clip-rule="evenodd" fill="#1F4973" points="156.279,65.5 172.811,65.5 172.811,61.066 
		161.903,61.066 161.903,37.355 156.279,37.355 156.279,65.5 	"/>
	<polygon fill-rule="evenodd" clip-rule="evenodd" fill="#1D4B73" points="176.049,65.5 181.503,65.5 181.503,44.69 176.049,44.69 
		176.049,65.5 	"/>
	<path fill-rule="evenodd" clip-rule="evenodd" fill="#1D4B73" d="M192.58,54.414c0-3.039,1.549-5.97,4.602-5.97h0.34
		c2.915,0,3.238,3.024,3.238,5.97V65.5h5.454V53.049c0-5.509-1.993-8.87-7.499-8.87h-0.171c-3.768,0-4.484,1.906-6.306,3.241V44.69
		h-5.112V65.5h5.454V54.414L192.58,54.414z"/>
	<path fill-rule="evenodd" clip-rule="evenodd" fill="#1F4973" d="M65.443,59.361c0-2.441,2.774-3.412,5.283-3.412h3.068
		c0,3.276-1.659,6.141-4.772,6.141h-0.341c-1.594,0-3.238-0.9-3.238-2.389V59.361L65.443,59.361z M62.754,50.318
		c2.008-0.476,2.661-2.045,6.438-2.045h0.341c2.953,0,4.261,1.468,4.261,4.435h-3.068c-5.468,0-10.396,1.411-10.396,6.823v0.683
		c0,3.37,3.454,5.799,6.817,5.799H68c3.559,0,4.292-2.185,5.965-3.411l0.217,2.896l4.726,0.003c0-3.314,0.127-10.979-0.304-13.854
		c-0.394-2.626-0.384-3.639-1.954-5.209c-1.005-1.005-3.02-2.089-4.9-2.089h-2.556c-2.391,0-5.075,0.704-6.685,1.538L62.754,50.318
		L62.754,50.318z"/>
	<path fill-rule="evenodd" clip-rule="evenodd" fill="#ED7B2B" d="M130.545,44.69c0.763,1.708,7.84,21.508,7.84,22.174
		c0,1.792-1.348,3.412-2.896,3.412h-1.193l-2.221-0.312l0.005,0.993c0,2.236-0.916,3.412,1.875,3.412h2.727
		c3.075,0,5.242-2.917,6.112-5.14c1.05-2.68,2.158-5.416,3.114-8.142c0.945-2.694,2.05-5.432,3.065-8.19
		c0.481-1.31,2.966-7.239,3.046-8.209h-5.112c-0.604,0-1.17,2.871-1.48,3.635c-0.48,1.176-0.942,2.547-1.312,3.806
		c-0.464,1.588-2.402,6.675-2.492,7.74l-5.147-15.169L130.545,44.69L130.545,44.69z"/>
	<path fill-rule="evenodd" clip-rule="evenodd" fill="#1D4B73" d="M81.633,44.69c0.625,1.4,8.01,21.985,8.01,22.004
		c0,1.881-1.364,3.582-3.238,3.582h-0.852l-2.221-0.312l-0.38,4.061l4.463,0.61l0.354-0.096c1.219,0,3.232-1.208,3.954-1.841
		c0.875-0.768,1.635-2.353,2.182-3.445c0.993-1.983,2.356-5.848,3.131-8.124c0.939-2.757,2.006-5.456,3.071-8.184
		c0.578-1.481,2.9-7.063,3-8.256h-5.454l-4.959,15.232c-0.178-1.146-2.163-6.229-2.609-7.828c-0.377-1.353-0.949-2.581-1.296-3.819
		c-0.182-0.647-0.843-3.584-1.531-3.584H81.633L81.633,44.69z"/>
	<path fill-rule="evenodd" clip-rule="evenodd" fill="#ED7B2B" d="M152.189,84.946l1.949-6.973l-21.208-0.021
		c0.078,0.926,1.953,3.34,2.6,3.88c1.563,1.301,2.242,1.568,4.267,2.382C142.468,85.29,148.385,84.946,152.189,84.946
		L152.189,84.946z"/>
	<path fill-rule="evenodd" clip-rule="evenodd" fill="#ED7A2B" d="M130.204,106.268c-0.687-0.598-5.29-2.684-6.749-3.65
		c-2.175-1.441-3.846-2.962-5.65-4.75c-1.738-1.724-3.135-3.807-4.505-5.896c-0.701-1.069-1.298-2.19-1.9-3.386
		c-0.557-1.104-1.026-2.745-1.646-3.64c-16.815,0-33.63,0-50.446,0c-4.473,0-22.339,0.47-24.908-0.314
		c-4.031-1.231-5.5-1.768-7.643-4.973c-1.465-2.191-2.897-6.089-2.897-9.723V37.015c0-7.487,5.597-11.473,12.027-12.695
		c4.881-0.928,18.274-0.269,24.274-0.269c16.417,0,32.835,0,49.252,0c11.339,0,15.465-0.483,19.599,7.335h24.711l0.206-0.058
		l-2.081-7.277c-0.308-0.355-2.743-5.72-3.477-6.925c-1.136-1.868-3.011-4.419-4.488-5.913c-1.69-1.709-3.608-3.417-5.635-4.765
		c-0.843-0.563-6.579-3.58-6.68-3.718c-1.239-0.028-4.618-1.428-6.476-1.707c-2.333-0.35-4.346-0.852-7.158-0.852h-80.27
		c-10.218,0-21.605,5.634-26.716,10.787C4.984,16.97,0,25.62,0,37.526v33.603c0,10.35,5.518,21.236,10.605,26.571
		c5.451,5.716,14.956,11.126,26.036,11.126h80.27c1.972,0,5.564-0.434,7.162-0.85C125.348,107.646,129.294,106.343,130.204,106.268
		L130.204,106.268z"/>
	<path fill-rule="evenodd" clip-rule="evenodd" fill="#1F4972" d="M131.568,2.729c0.102,0.139,5.837,3.156,6.68,3.718
		c2.026,1.348,3.944,3.056,5.635,4.765c1.478,1.493,3.353,4.045,4.488,5.913c0.733,1.205,3.169,6.57,3.477,6.925
		c16.646,0,33.29,0,49.936,0c5.089,0,21.19-0.617,24.811,0.242c3.838,0.909,5.966,1.756,7.914,4.531
		c1.249,1.779,3.234,6.268,3.234,9.214v33.603c0,7.803-5.284,11.638-11.801,12.923c-5.149,1.016-17.991,0.382-24.329,0.382
		c-16.475,0-32.949,0-49.423,0c-3.805,0-9.722,0.344-12.393-0.731c-2.024-0.813-2.703-1.081-4.267-2.382
		c-0.646-0.54-2.521-2.954-2.6-3.88h-25.052l1.875,6.993c0.62,0.895,1.089,2.535,1.646,3.64c0.602,1.195,1.199,2.316,1.9,3.386
		c1.371,2.09,2.768,4.173,4.505,5.896c1.804,1.788,3.475,3.309,5.65,4.75c1.458,0.967,6.062,3.053,6.749,3.65
		c1.257,0.104,4.985,1.55,7.257,1.947c2.688,0.473,5.367,0.781,8.423,0.781h77.031c10.595,0,21.946-5.403,27.4-10.613
		c5.979-5.712,11.286-14.94,11.286-26.571V37.526c0-10.285-5.837-21.454-11.035-26.652C244.724,5.031,235.345,0,223.768,0h-78.226
		c-1.66,0-5.956,0.544-7.43,0.921c-1.156,0.296-2.305,0.537-3.441,0.82C133.528,2.026,132.663,2.474,131.568,2.729L131.568,2.729z"
		/>
</g>
</svg>
